<svg id="Layer_8" data-name="Layer 8" xmlns="http://www.w3.org/2000/svg" viewBox="0 0 143.28 172.29"><defs><style>.cls-1{fill:#91bcc5;}.cls-2{fill:none;}.cls-2,.cls-3,.cls-4,.cls-5{stroke:#000;}.cls-2,.cls-3,.cls-4,.cls-5,.cls-6,.cls-7{stroke-miterlimit:10;stroke-width:0.5px;}.cls-3,.cls-7{fill:#e26868;}.cls-4,.cls-6{fill:#f4ffb5;}.cls-5{fill:#c7b299;}.cls-6{stroke:#f4ffb5;}.cls-7{stroke:#e26868;}</style></defs><title>logo</title><path class="cls-1" d="M630.11,214.66a2.76,2.76,0,0,0-1.18-2.27l-58.55-40.77a5.44,5.44,0,0,0-4-.94l-0.54-.06c17.59-12.43,41-20,66.71-20,25.48,0,48.71,7.45,66.24,19.68l0.17,0.47a5.44,5.44,0,0,0-4.34.87l-58.55,40.77a2.76,2.76,0,0,0-1.18,2.27" transform="translate(-560.88 -150.36)"/><path class="cls-2" d="M565.87,170.61c17.59-12.43,41-20,66.71-20a124.65,124.65,0,0,1,35.61,5.1" transform="translate(-560.88 -150.36)"/><path class="cls-3" d="M625.69,321.9L563.5,278.71a5.52,5.52,0,0,1-2.37-4.57l0.57-98a5.52,5.52,0,0,1,8.68-4.5l58.55,40.77a2.76,2.76,0,0,1,1.18,2.27l-0.09,105A2.76,2.76,0,0,1,625.69,321.9Z" transform="translate(-560.88 -150.36)"/><path class="cls-4" d="M639.34,321.9l62.19-43.19a5.52,5.52,0,0,0,2.37-4.57l-0.57-98a5.52,5.52,0,0,0-8.68-4.5L636.1,212.39a2.76,2.76,0,0,0-1.18,2.27l0.09,105A2.76,2.76,0,0,0,639.34,321.9Z" transform="translate(-560.88 -150.36)"/><path class="cls-5" d="M614.83,200.08a1.34,1.34,0,0,1,.6,1.26,7.06,7.06,0,0,0,0,1.47,7.9,7.9,0,0,0-1.16-.74,1.52,1.52,0,0,1-.56-0.65C613.43,200.72,614,199.68,614.83,200.08Z" transform="translate(-560.88 -150.36)"/><path class="cls-5" d="M596.29,156.06a11.48,11.48,0,0,0,0,4.13,15.92,15.92,0,0,0,.59,2,11.09,11.09,0,0,1,.59,1.43,2.61,2.61,0,0,1-.75,1.91L595.67,167a15.31,15.31,0,0,0-1.7,2.61,7.65,7.65,0,0,0-.52,1.47,14.38,14.38,0,0,0-.3,3.14,118.16,118.16,0,0,0,.43,12.33,1.53,1.53,0,0,0,.76,1.46,1,1,0,0,0,1.17-.68,3,3,0,0,0,.07-1.47,4.21,4.21,0,0,1,1,3.73l5.8,4.42a7.8,7.8,0,0,1,1.51-2.4,4,4,0,0,1,2.49-1.26,6.42,6.42,0,0,1,2.59.52l2.62,0.92a1.6,1.6,0,0,1,1.31,1.22,1.36,1.36,0,0,1,1.38,1.12,4.27,4.27,0,0,1-.16,1.93,4.05,4.05,0,0,0,0,2.41,1.51,1.51,0,0,0,2,.91,1.73,1.73,0,0,0,.75-1.28,14.82,14.82,0,0,1,.2-1.52,5.12,5.12,0,0,1,2-2.46l1.06-.83a2.12,2.12,0,0,1,1.69-.66,17.42,17.42,0,0,0,5.15-2.85,8,8,0,0,1,1.76-1.22,2.08,2.08,0,0,1,2,.11c0.69,0.52.89,1.61,1.71,1.9a1.52,1.52,0,0,0,1.65-.65,4.44,4.44,0,0,0,.62-1.79,5.68,5.68,0,0,0,2.9,2c1.17,0.2,2.59-.68,2.43-1.86-0.11-.82-0.88-1.38-1.23-2.13-0.23-.49-0.28-1.06-0.55-1.53a1.93,1.93,0,0,0-2.31-.82,1.87,1.87,0,0,1,1.88-.83,5.5,5.5,0,0,1,2,.81A11.24,11.24,0,0,0,642.6,185a3.82,3.82,0,0,0,2.91-.31,2.34,2.34,0,0,0,1.09-2.57c-0.3-.94-1.26-1.51-1.68-2.4-1-2.05,1.36-4.57.42-6.63-1.07-.76-2.76.45-3.8-0.35-0.7-.54-0.59-1.58-0.68-2.45a4.46,4.46,0,0,0-2.33-3.42,2.68,2.68,0,0,0-2.82,0,3.77,3.77,0,0,0-1.09,2.21l-0.29,1.23a4.23,4.23,0,0,1-1.49,2.78,8.1,8.1,0,0,1-2,.62,1.75,1.75,0,0,0-1.37,1.37c-0.49.24-1-.44-0.89-1a15.62,15.62,0,0,1,.61-1.5,0.87,0.87,0,0,0-.7-1.18,1.49,1.49,0,0,0-2.06-1.24,3,3,0,0,0-1-3.57,9,9,0,0,1-1.63-1.09,2.3,2.3,0,0,1-.1-2.61,4.71,4.71,0,0,1,2.13-1.75,9.54,9.54,0,0,1,5.9-.64,1.24,1.24,0,0,0,.15,1.75,2.39,2.39,0,0,0,.86.35l1,0.26a3.07,3.07,0,0,0,1.37.15,1.05,1.05,0,0,0,.89-0.92c0-.56-0.57-1.12-0.27-1.59a1.36,1.36,0,0,1,1.26-.26,4.46,4.46,0,0,0,1.81-.47l1.58-.66a1.56,1.56,0,0,0,.61-0.38,0.53,0.53,0,0,0,.06-0.67,1.63,1.63,0,0,1-1-.47,0.65,0.65,0,0,1,.09-1,1,1,0,0,1,1,.29c0.68,0.54,1.36,1.08,2,1.68a2.82,2.82,0,0,1,1.06,1.9,2.07,2.07,0,0,1-.77,1.5,5.59,5.59,0,0,1-1.51.85,2.84,2.84,0,0,0-1.08.66,2.58,2.58,0,0,0-.05,2.59c0.26,0.68.57,1.34,0.89,2l0.49,1a3.06,3.06,0,0,0,.73,1.1,1,1,0,0,0,1.23.14,0.74,0.74,0,0,1,.89-0.08,6.12,6.12,0,0,0,.85.46,1.06,1.06,0,0,0,1.24-1.51l2.09,0,0.14-.75a3.86,3.86,0,0,0,1.59.22,1.32,1.32,0,0,0,1.15-1,2,2,0,0,0-.9-1.61c-0.36-.32-0.73-0.65-1.06-1a2.51,2.51,0,0,1-.84-1.78,1,1,0,0,0,1.08-.5,3,3,0,0,0,.37-1.21,2.75,2.75,0,0,0-.23-2.11,4.06,4.06,0,0,0-.73-0.64,8.18,8.18,0,0,1-1.38-1.57L646.71,155l-0.59.27a0.66,0.66,0,0,0,.37-0.82,1.23,1.23,0,0,0-.65-0.49l-1-.45a2.63,2.63,0,0,0-3.32-1.06,1.23,1.23,0,0,1-1.1.22c-0.42-.25-0.25-0.92-0.5-1.33a1.46,1.46,0,0,0-1.58-.32,0.54,0.54,0,0,1-.18.7,5.39,5.39,0,0,0-.66.46,1.23,1.23,0,0,0,0,1.36c0.21,0.43.55,0.79,0.76,1.23a1.42,1.42,0,1,1-2.41,1.43,5.2,5.2,0,0,0-.15-1.11,2.12,2.12,0,0,0-.42-0.52,3.56,3.56,0,0,1-.73-3.57,4.29,4.29,0,0,0-1.65-.29,1.46,1.46,0,0,0-1.3.91,2.21,2.21,0,0,0,.07,1.14,2,2,0,0,1,0,1.14,0.71,0.71,0,0,1-.91.46,0.85,0.85,0,0,1-.34-0.85,4,4,0,0,0,.08-1,1,1,0,0,0-1.66-.6,1,1,0,0,1-.95,1.07,0.92,0.92,0,0,0-.81-0.92,9,9,0,0,1-1.33-.22,0.78,0.78,0,0,1-.48-1.07" transform="translate(-560.88 -150.36)"/><path class="cls-5" d="M668.38,156.24a9.68,9.68,0,0,1,6.16,6.14,4.71,4.71,0,0,1-.07,5.26l-0.7,1.43a17,17,0,0,1-.81,1.52c-0.16.26-.34,0.51-0.51,0.76l-0.61.88a3,3,0,0,0-.65,2.2l-0.06,2.45a9.11,9.11,0,0,0,.6,4.33,1.27,1.27,0,0,0,1.39.86,2.3,2.3,0,0,0,.78-0.82,0.69,0.69,0,0,1,1-.2l0.31-.62a1.74,1.74,0,0,0,2.17-1l1.45-.49a7.15,7.15,0,0,1,2.3-.51,3.6,3.6,0,0,1,2.34.88l-0.25.32,11.45-8a5.44,5.44,0,0,1,4-.94l0.21-.4a107,107,0,0,0-30.63-14.57" transform="translate(-560.88 -150.36)"/><path class="cls-2" d="M668.38,156.24a9.68,9.68,0,0,1,6.16,6.14,4.71,4.71,0,0,1-.07,5.26l-0.7,1.43a17,17,0,0,1-.81,1.52c-0.16.26-.34,0.51-0.51,0.76l-0.61.88a3,3,0,0,0-.65,2.2l-0.06,2.45a9.11,9.11,0,0,0,.6,4.33,1.27,1.27,0,0,0,1.39.86,2.3,2.3,0,0,0,.78-0.82,0.69,0.69,0,0,1,1-.2l0.31-.62a1.74,1.74,0,0,0,2.17-1l1.45-.49a7.15,7.15,0,0,1,2.3-.51,3.6,3.6,0,0,1,2.34.88" transform="translate(-560.88 -150.36)"/><path class="cls-6" d="M575,231.24c-0.33.67-2.14,4.93-2.3,5.56a6.39,6.39,0,0,0-.1.69,1.42,1.42,0,0,0,1.12,1.14c0.62,0.25.93,0.39,1.55,0.69a0.45,0.45,0,0,1,.33.39v0.76c0,0.23-.1.25-0.26,0.17a18.36,18.36,0,0,0-3.75-1.55,9.36,9.36,0,0,0-3.59-.47,0.21,0.21,0,0,1-.23-0.27v-0.79a0.22,0.22,0,0,1,.26-0.22c0.46,0,.69,0,1.15.09a1.63,1.63,0,0,0,1.91-1.16c0.23-.47,2.63-5.77,3.58-8,0.23-.55,2.89-6.2,3.19-6.9a1.23,1.23,0,0,0,0-1.1,1.8,1.8,0,0,1-.23-0.57c0-.1.07-0.19,0.3-0.12a4.71,4.71,0,0,0,2.73.19,0.4,0.4,0,0,1,.43,0,1.31,1.31,0,0,1,.36.83c0.63,2.54,3.19,12,3.81,14.62,0.76,3.21,2.89,11.26,3.35,12.63a8.9,8.9,0,0,0,2.24,3.57l1.09,1a0.69,0.69,0,0,1,.26.48v0.82c0,0.16-.1.14-0.33-0.08-0.59-.56-1.28-1.36-3.95-3.79s-3.88-3.31-4.64-3.92a0.65,0.65,0,0,1-.26-0.51v-0.76c0-.2.1-0.15,0.3,0l0.82,0.68c0.92,0.77,1.2.69,1-.41-0.27-1.39-1.61-6.74-2.07-8.43A34.81,34.81,0,0,0,575,231.24Zm7.7,3.79c-0.3-1.22-3-11.4-3.12-12a1.72,1.72,0,0,0-.26-0.64c-0.13-.09-0.26.05-0.36,0.25s-3.29,6.92-3.52,7.62A34.93,34.93,0,0,1,582.69,235Z" transform="translate(-560.88 -150.36)"/><path class="cls-6" d="M596.64,245.11c0-2-.07-6.53-0.07-7.06a3.87,3.87,0,0,0-1.45-3.5l-1.55-1.47a0.52,0.52,0,0,1-.2-0.45v-0.79c0-.16.1-0.14,0.26,0,0.66,0.63,1.71,1.77,4.6,4.44,2.57,2.36,3.75,3.24,4.37,3.76a0.66,0.66,0,0,1,.33.44v0.85c0,0.2-.07.21-0.26,0-0.67-.56-1-0.85-1.68-1.43-1.12-1-1.28-.58-1.28.74,0,0.46-.07,4.74-0.07,6.58v0.56a0.9,0.9,0,0,0,.39.62c4.87,4.34,7.3,6.4,12.17,8.6,0.49,0.22.66,0.22,0.66-.21v-0.33c0-1.87-.1-6.48-0.1-6.88,0-1.05-.13-1.71-1.09-2.16-0.68-.33-1-0.51-1.71-0.89a0.38,0.38,0,0,1-.23-0.36v-0.85c0-.13,0-0.18.2-0.09a21.22,21.22,0,0,0,4.34,2.07,13.34,13.34,0,0,0,4.21.75c0.23,0,.26.08,0.26,0.28v0.79c0,0.2-.07.23-0.26,0.22a12.25,12.25,0,0,1-1.48-.16c-1-.15-1.05.35-1.05,1.54,0,0.46-.07,6-0.07,7.21v1.12c0,1.05.08,7.33,0.1,9.19,0,1.17.33,1.75,1.32,1.89a12,12,0,0,0,1.45.13c0.23,0,.3.07,0.3,0.24v0.79a0.21,0.21,0,0,1-.26.26,14.82,14.82,0,0,1-4.14-.84,20.24,20.24,0,0,1-4.9-2.1,0.4,0.4,0,0,1-.2-0.34v-0.82c0-.16.07-0.19,0.26-0.08,0.83,0.47,1.24.69,2.07,1.08s0.88-.24.89-1.12c0-1.51.1-6.79,0.1-8v-0.46c0-.36-0.16-0.45-0.72-0.71-4.81-2.19-7.22-4.22-12-8.51-0.36-.32-0.46-0.31-0.46-0.08v0.69c0,0.89,0,6,.07,8.31a2.7,2.7,0,0,0,1.05,2.05c0.64,0.57,1,.84,1.61,1.38a0.56,0.56,0,0,1,.26.45v0.82c0,0.16-.07.18-0.26,0-0.62-.52-1.78-1.58-4.14-3.77-2.83-2.61-3.81-3.49-4.57-4.21a0.59,0.59,0,0,1-.23-0.45V254c0-.13.1-0.1,0.23,0l1.94,1.85c0.82,0.78.91,0.07,0.92-.71,0-1.5.1-7.83,0.1-8.68v-1.41Z" transform="translate(-560.88 -150.36)"/><path class="cls-7" d="M660.12,259.17c0.42-.81,3.42-11,3.64-11.66s3.45-11.21,3.55-11.93a1.92,1.92,0,0,1,.69-1c4-3.73,5-4.83,5.31-5.14,0.15-.14.18-0.07,0.18,0.06v0.74a0.6,0.6,0,0,1-.24.52L671.92,232a2.72,2.72,0,0,0-1,2.26c0,0.94-.09,5.65-0.09,7.81v2.26c0,1.62.09,6.77,0.09,7.42,0,1.23.27,1.49,1,.78l1.76-1.67c0.18-.17.21-0.1,0.21,0,0,0.3,0,.45,0,0.74a0.63,0.63,0,0,1-.27.54c-0.36.34-.89,0.75-4.17,3.88-2.74,2.61-3.91,3.75-4.29,4.1-0.21.19-.24,0.12-0.24-0.08s0-.45,0-0.74a0.51,0.51,0,0,1,.24-0.44c0.81-.73,1.22-1.11,2-1.87a2.5,2.5,0,0,0,.83-1.95c0-.41.06-6.07,0.06-8.46v-2.07c0-2.13,0-7.89-.09-8.1l-0.06.06c-0.3.7-4.53,14.74-4.68,15.19s-3.49,11.5-3.61,11.88a3.18,3.18,0,0,1-.6,1.23c-0.18.13-.33,0-0.45-0.25-1.62-3.15-2.43-4.78-4.05-8.21-0.57-1.17-3.28-7.18-3.7-7.42-0.12.49-.18,8.7-0.18,9.08s0,7.22.06,8.32c0.15,1.79.42,2.24,1.37,1.83,0.6-.26.89-0.4,1.49-0.7,0.18-.09.21,0,0.21,0.12v0.81a0.37,0.37,0,0,1-.27.36A18.22,18.22,0,0,1,650,270.1a13.8,13.8,0,0,1-3.84.76c-0.24,0-.27,0-0.27-0.28V269.8a0.17,0.17,0,0,1,.18-0.2,11.73,11.73,0,0,0,1.58-.14c1.13-.16,1.4-1.11,1.58-2.25,0.36-2.38.45-10.69,0.45-11.27s0-5.34,0-6.26c0-.73,0-1.15-1.22-0.91a12.24,12.24,0,0,1-1.82.24,0.17,0.17,0,0,1-.21-0.21V248a0.19,0.19,0,0,1,.21-0.21,9.05,9.05,0,0,0,3.64-.61,14.78,14.78,0,0,0,2.53-1.09c0.45-.21.63-0.17,0.78,0.18C656.15,251.8,657.47,254.33,660.12,259.17Z" transform="translate(-560.88 -150.36)"/><path class="cls-7" d="M679.47,244.32c-2.12-.35-3.19-3.14-3.19-6.25a26,26,0,0,1,3-11.25c1.52-3,4.2-6.81,7.45-8.68a6.9,6.9,0,0,1,6-.73c0.39,0.17.54,0.11,0.6-.13l0.24-1c0.06-.2.12-0.22,0.39-0.26s0.33,0,.33.47c0,0.61.6,5.3,0.74,6.19a0.26,0.26,0,0,1-.12.33l-0.45.18c-0.15.05-.21,0-0.3-0.22a8.62,8.62,0,0,0-2.33-3.5c-1.25-1-2.83-1.55-5.19-.18-5.34,3.1-7.47,10.62-7.45,15.3,0,1.87.56,5,2.86,6,2,0.88,3.73,0,5.72-1a19.54,19.54,0,0,0,7.36-6.4c0.09-.17.15-0.2,0.24-0.11l0.39,0.31a0.18,0.18,0,0,1,.06.29,24.77,24.77,0,0,1-8.88,8.21C683.49,243.86,681.22,244.61,679.47,244.32Z" transform="translate(-560.88 -150.36)"/></svg>